<svg width="20" height="20" viewBox="0 0 20 20" fill="none" xmlns="http://www.w3.org/2000/svg">
<g opacity="0.6">
<path d="M9.40831 9.99992L12.3583 7.04992C12.5135 6.89378 12.6006 6.68257 12.6006 6.46242C12.6006 6.24226 12.5135 6.03105 12.3583 5.87492C12.2808 5.79681 12.1887 5.73481 12.0871 5.69251C11.9856 5.6502 11.8767 5.62842 11.7666 5.62842C11.6566 5.62842 11.5477 5.6502 11.4462 5.69251C11.3446 5.73481 11.2524 5.79681 11.175 5.87492L7.64164 9.40825C7.56353 9.48572 7.50154 9.57789 7.45923 9.67944C7.41692 9.78099 7.39514 9.88991 7.39514 9.99992C7.39514 10.1099 7.41692 10.2188 7.45923 10.3204C7.50154 10.4219 7.56353 10.5141 7.64164 10.5916L11.175 14.1666C11.2528 14.2438 11.3452 14.3049 11.4467 14.3464C11.5482 14.3879 11.657 14.4089 11.7666 14.4083C11.8763 14.4089 11.985 14.3879 12.0866 14.3464C12.1881 14.3049 12.2804 14.2438 12.3583 14.1666C12.5135 14.0104 12.6006 13.7992 12.6006 13.5791C12.6006 13.3589 12.5135 13.1477 12.3583 12.9916L9.40831 9.99992Z" fill="#393939"/>
</g>
</svg>
