<svg width="16" height="16" viewBox="0 0 16 16" fill="none" xmlns="http://www.w3.org/2000/svg">
<path d="M13.9467 4.41313C13.9149 4.3313 13.8674 4.25653 13.8067 4.19313L11.8067 2.19313C11.7445 2.13097 11.6707 2.08167 11.5895 2.04802C11.5083 2.01438 11.4212 1.99707 11.3333 1.99707C11.1558 1.99707 10.9855 2.0676 10.86 2.19313C10.7345 2.31867 10.6639 2.48893 10.6639 2.66646C10.6639 2.844 10.7345 3.01426 10.86 3.1398L11.7267 3.9998H6C5.46956 3.9998 4.96086 4.21051 4.58578 4.58558C4.21071 4.96066 4 5.46936 4 5.9998V11.7265L3.14 10.8598C3.01446 10.7343 2.8442 10.6637 2.66666 10.6637C2.48913 10.6637 2.31887 10.7343 2.19333 10.8598C2.06779 10.9853 1.99727 11.1556 1.99727 11.3331C1.99727 11.5107 2.06779 11.6809 2.19333 11.8065L4.19333 13.8065C4.25673 13.8672 4.3315 13.9147 4.41333 13.9465C4.49313 13.9817 4.57942 14 4.66666 14C4.75391 14 4.8402 13.9817 4.92 13.9465C5.00183 13.9147 5.07659 13.8672 5.14 13.8065L7.14 11.8065C7.26553 11.6809 7.33606 11.5107 7.33606 11.3331C7.33606 11.1556 7.26553 10.9853 7.14 10.8598C7.01446 10.7343 6.8442 10.6637 6.66666 10.6637C6.48913 10.6637 6.31887 10.7343 6.19333 10.8598L5.33333 11.7265V5.9998C5.33333 5.82299 5.40357 5.65342 5.52859 5.52839C5.65362 5.40337 5.82319 5.33313 6 5.33313H11.7267L10.86 6.19313C10.7975 6.25511 10.7479 6.32884 10.7141 6.41008C10.6802 6.49132 10.6628 6.57846 10.6628 6.66646C10.6628 6.75447 10.6802 6.84161 10.7141 6.92285C10.7479 7.00409 10.7975 7.07782 10.86 7.1398C10.922 7.20228 10.9957 7.25188 11.0769 7.28573C11.1582 7.31957 11.2453 7.337 11.3333 7.337C11.4213 7.337 11.5085 7.31957 11.5897 7.28573C11.671 7.25188 11.7447 7.20228 11.8067 7.1398L13.8067 5.1398C13.8674 5.0764 13.9149 5.00163 13.9467 4.9198C14.0133 4.75749 14.0133 4.57544 13.9467 4.41313Z" fill="#A7A7A7"/>
</svg>
