<svg width="16" height="16" viewBox="0 0 16 16" fill="none" xmlns="http://www.w3.org/2000/svg">
<path d="M7.33336 1.3335C6.01481 1.3335 4.72588 1.72449 3.62956 2.45703C2.53323 3.18957 1.67874 4.23077 1.17416 5.44894C0.669576 6.66711 0.537553 8.00756 0.794788 9.30077C1.05202 10.594 1.68696 11.7819 2.61931 12.7142C3.55166 13.6466 4.73955 14.2815 6.03275 14.5387C7.32596 14.796 8.66641 14.6639 9.88458 14.1594C11.1028 13.6548 12.1439 12.8003 12.8765 11.704C13.609 10.6076 14 9.31871 14 8.00016C14 7.12468 13.8276 6.25778 13.4926 5.44894C13.1575 4.6401 12.6665 3.90517 12.0474 3.28612C11.4283 2.66706 10.6934 2.176 9.88458 1.84097C9.07574 1.50593 8.20884 1.3335 7.33336 1.3335ZM7.33336 13.3335C6.27852 13.3335 5.24738 13.0207 4.37032 12.4347C3.49325 11.8486 2.80967 11.0157 2.406 10.0411C2.00233 9.0666 1.89671 7.99425 2.1025 6.95968C2.30829 5.92512 2.81624 4.97481 3.56212 4.22893C4.308 3.48305 5.25831 2.9751 6.29288 2.76931C7.32744 2.56352 8.3998 2.66914 9.37434 3.07281C10.3489 3.47647 11.1818 4.16006 11.7679 5.03712C12.3539 5.91418 12.6667 6.94533 12.6667 8.00016C12.6667 9.41465 12.1048 10.7712 11.1046 11.7714C10.1044 12.7716 8.74784 13.3335 7.33336 13.3335ZM7.33336 4.00016C7.15655 4.00016 6.98698 4.0704 6.86195 4.19543C6.73693 4.32045 6.66669 4.49002 6.66669 4.66683V7.3335H5.33336C5.15655 7.3335 4.98698 7.40373 4.86195 7.52876C4.73693 7.65378 4.66669 7.82335 4.66669 8.00016C4.66669 8.17697 4.73693 8.34654 4.86195 8.47157C4.98698 8.59659 5.15655 8.66683 5.33336 8.66683H7.33336C7.51017 8.66683 7.67974 8.59659 7.80476 8.47157C7.92979 8.34654 8.00002 8.17697 8.00002 8.00016V4.66683C8.00002 4.49002 7.92979 4.32045 7.80476 4.19543C7.67974 4.0704 7.51017 4.00016 7.33336 4.00016Z" fill="#959595"/>
</svg>
