<svg width="20" height="20" viewBox="0 0 20 20" fill="none" xmlns="http://www.w3.org/2000/svg">
<path d="M15.8334 6.6665H15V4.1665C15 3.50346 14.7366 2.86758 14.2678 2.39874C13.7989 1.9299 13.1631 1.6665 12.5 1.6665H4.16669C3.50365 1.6665 2.86776 1.9299 2.39892 2.39874C1.93008 2.86758 1.66669 3.50346 1.66669 4.1665V14.1665C1.66751 14.331 1.71701 14.4916 1.80895 14.6281C1.9009 14.7645 2.03117 14.8707 2.18335 14.9332C2.28225 14.9798 2.39071 15.0027 2.50002 14.9998C2.60969 15.0005 2.71841 14.9795 2.81994 14.938C2.92147 14.8965 3.01382 14.8354 3.09169 14.7582L5.43335 12.4082H6.66669V13.6082C6.66669 14.2712 6.93008 14.9071 7.39892 15.3759C7.86776 15.8448 8.50365 16.1082 9.16669 16.1082H14.9334L16.9084 18.0915C16.9862 18.1687 17.0786 18.2298 17.1801 18.2713C17.2816 18.3128 17.3903 18.3338 17.5 18.3332C17.6093 18.336 17.7178 18.3132 17.8167 18.2665C17.9689 18.204 18.0991 18.0978 18.1911 17.9614C18.283 17.825 18.3325 17.6644 18.3334 17.4998V9.1665C18.3334 8.50346 18.07 7.86758 17.6011 7.39874C17.1323 6.9299 16.4964 6.6665 15.8334 6.6665ZM6.66669 9.1665V10.7415H5.09169C4.98202 10.7409 4.8733 10.7619 4.77176 10.8034C4.67023 10.8448 4.57789 10.9059 4.50002 10.9832L3.33335 12.1582V4.1665C3.33335 3.94549 3.42115 3.73353 3.57743 3.57725C3.73371 3.42097 3.94567 3.33317 4.16669 3.33317H12.5C12.721 3.33317 12.933 3.42097 13.0893 3.57725C13.2456 3.73353 13.3334 3.94549 13.3334 4.1665V6.6665H9.16669C8.50365 6.6665 7.86776 6.9299 7.39892 7.39874C6.93008 7.86758 6.66669 8.50346 6.66669 9.1665ZM16.6667 15.4915L15.8334 14.6582C15.7562 14.5794 15.6641 14.5168 15.5626 14.4739C15.461 14.431 15.3519 14.4086 15.2417 14.4082H9.16669C8.94567 14.4082 8.73371 14.3204 8.57743 14.1641C8.42115 14.0078 8.33335 13.7959 8.33335 13.5748V9.1665C8.33335 8.94549 8.42115 8.73353 8.57743 8.57725C8.73371 8.42097 8.94567 8.33317 9.16669 8.33317H15.8334C16.0544 8.33317 16.2663 8.42097 16.4226 8.57725C16.5789 8.73353 16.6667 8.94549 16.6667 9.1665V15.4915Z" fill="#959595"/>
</svg>
