<svg width="16" height="16" viewBox="0 0 16 16" fill="none" xmlns="http://www.w3.org/2000/svg">
<path d="M5.33334 7.3335C5.20148 7.3335 5.07259 7.3726 4.96296 7.44585C4.85332 7.5191 4.76787 7.62322 4.71742 7.74504C4.66696 7.86686 4.65376 8.0009 4.67948 8.13022C4.7052 8.25954 4.7687 8.37833 4.86193 8.47157C4.95517 8.5648 5.07395 8.6283 5.20328 8.65402C5.3326 8.67974 5.46664 8.66654 5.58846 8.61608C5.71028 8.56562 5.81439 8.48018 5.88765 8.37054C5.9609 8.26091 6 8.13202 6 8.00016C6 7.82335 5.92976 7.65378 5.80474 7.52876C5.67972 7.40373 5.51015 7.3335 5.33334 7.3335ZM8 7.3335C7.86815 7.3335 7.73925 7.3726 7.62962 7.44585C7.51999 7.5191 7.43454 7.62322 7.38408 7.74504C7.33362 7.86686 7.32042 8.0009 7.34615 8.13022C7.37187 8.25954 7.43536 8.37833 7.5286 8.47157C7.62183 8.5648 7.74062 8.6283 7.86994 8.65402C7.99926 8.67974 8.13331 8.66654 8.25513 8.61608C8.37694 8.56562 8.48106 8.48018 8.55432 8.37054C8.62757 8.26091 8.66667 8.13202 8.66667 8.00016C8.66667 7.82335 8.59643 7.65378 8.47141 7.52876C8.34638 7.40373 8.17681 7.3335 8 7.3335ZM10.6667 7.3335C10.5348 7.3335 10.4059 7.3726 10.2963 7.44585C10.1867 7.5191 10.1012 7.62322 10.0507 7.74504C10.0003 7.86686 9.98709 8.0009 10.0128 8.13022C10.0385 8.25954 10.102 8.37833 10.1953 8.47157C10.2885 8.5648 10.4073 8.6283 10.5366 8.65402C10.6659 8.67974 10.8 8.66654 10.9218 8.61608C11.0436 8.56562 11.1477 8.48018 11.221 8.37054C11.2942 8.26091 11.3333 8.13202 11.3333 8.00016C11.3333 7.82335 11.2631 7.65378 11.1381 7.52876C11.0131 7.40373 10.8435 7.3335 10.6667 7.3335ZM8 1.3335C7.12452 1.3335 6.25762 1.50593 5.44878 1.84097C4.63994 2.176 3.90501 2.66706 3.28596 3.28612C2.03571 4.53636 1.33334 6.23205 1.33334 8.00016C1.32751 9.53959 1.86053 11.0325 2.84 12.2202L1.50667 13.5535C1.41416 13.6472 1.3515 13.7663 1.32658 13.8956C1.30167 14.0249 1.31562 14.1588 1.36667 14.2802C1.42204 14.4001 1.5118 14.5009 1.62457 14.5698C1.73733 14.6386 1.868 14.6724 2 14.6668H8C9.76811 14.6668 11.4638 13.9645 12.714 12.7142C13.9643 11.464 14.6667 9.76827 14.6667 8.00016C14.6667 6.23205 13.9643 4.53636 12.714 3.28612C11.4638 2.03588 9.76811 1.3335 8 1.3335ZM8 13.3335H3.60667L4.22667 12.7135C4.28966 12.6518 4.33977 12.5781 4.37411 12.4969C4.40844 12.4156 4.4263 12.3284 4.42667 12.2402C4.42416 12.0643 4.35228 11.8966 4.22667 11.7735C3.35373 10.9015 2.81012 9.75386 2.68846 8.52603C2.56681 7.2982 2.87463 6.06617 3.55949 5.03984C4.24434 4.01352 5.26386 3.2564 6.44435 2.89748C7.62483 2.53855 8.89324 2.60003 10.0335 3.07144C11.1737 3.54284 12.1152 4.39501 12.6976 5.48276C13.28 6.5705 13.4672 7.82653 13.2274 9.03683C12.9876 10.2471 12.3355 11.3369 11.3824 12.1203C10.4292 12.9038 9.23384 13.3325 8 13.3335Z" fill="#A7A7A7"/>
</svg>
