<svg width="16" height="16" viewBox="0 0 16 16" fill="none" xmlns="http://www.w3.org/2000/svg">
<path d="M10.9377 4.71778C11.0189 4.75162 11.0926 4.80122 11.1546 4.8637C11.2223 4.92613 11.2763 5.0019 11.3132 5.08623C11.3502 5.17056 11.3692 5.26164 11.3692 5.3537C11.3692 5.44577 11.3502 5.53684 11.3132 5.62117C11.2763 5.70551 11.2223 5.78127 11.1546 5.8437L8.01462 9.05705L7.01462 8.05705L10.2079 4.8637C10.2699 4.80122 10.3437 4.75162 10.4249 4.71778C10.5061 4.68393 10.5933 4.6665 10.6813 4.6665C10.7693 4.6665 10.8564 4.68393 10.9377 4.71778Z" fill="#959595"/>
<path d="M3.15462 7.7437L5.24128 9.83704L6.55367 8.52288L7.51117 9.48715L5.71462 11.2837C5.65264 11.3462 5.57891 11.3958 5.49767 11.4296C5.41643 11.4635 5.32929 11.4809 5.24128 11.4809C5.15327 11.4809 5.06614 11.4635 4.9849 11.4296C4.90366 11.3958 4.82992 11.3462 4.76795 11.2837L2.20795 8.7237C2.1436 8.66154 2.09213 8.58732 2.05646 8.50527C2.0208 8.42321 2.00165 8.33494 2.0001 8.24549C1.99855 8.15603 2.01464 8.06715 2.04744 7.98391C2.08025 7.90068 2.12912 7.82472 2.19128 7.76037C2.25344 7.69602 2.32767 7.64455 2.40972 7.60888C2.49177 7.57322 2.58004 7.55407 2.6695 7.55252C2.75895 7.55098 2.84783 7.56706 2.93107 7.59986C3.01431 7.63267 3.09027 7.68154 3.15462 7.7437Z" fill="#959595"/>
<path d="M13.8359 4.92083C13.7739 4.85835 13.7002 4.80875 13.6189 4.7749C13.5377 4.74106 13.4506 4.72363 13.3626 4.72363C13.2745 4.72363 13.1874 4.74106 13.1062 4.7749C13.0249 4.80875 12.9512 4.85835 12.8892 4.92083L7.92256 9.89416L5.83589 7.80083C5.77154 7.73867 5.69558 7.6898 5.61234 7.65699C5.52911 7.62419 5.44022 7.6081 5.35077 7.60965C5.26132 7.6112 5.17304 7.63035 5.09099 7.66601C5.00894 7.70168 4.93471 7.75315 4.87256 7.8175C4.8104 7.88185 4.76152 7.95781 4.72872 8.04104C4.69592 8.12428 4.67983 8.21316 4.68138 8.30262C4.68292 8.39207 4.70208 8.48034 4.73774 8.5624C4.7734 8.64445 4.82487 8.71867 4.88922 8.78083L7.44922 11.3408C7.5112 11.4033 7.58493 11.4529 7.66617 11.4868C7.74741 11.5206 7.83455 11.538 7.92256 11.538C8.01056 11.538 8.0977 11.5206 8.17894 11.4868C8.26018 11.4529 8.33391 11.4033 8.39589 11.3408L13.8359 5.90083C13.9036 5.8384 13.9576 5.76264 13.9945 5.6783C14.0314 5.59397 14.0505 5.5029 14.0505 5.41083C14.0505 5.31876 14.0314 5.22769 13.9945 5.14336C13.9576 5.05903 13.9036 4.98326 13.8359 4.92083Z" fill="#959595"/>
</svg>
