<svg width="16" height="16" viewBox="0 0 16 16" fill="none" xmlns="http://www.w3.org/2000/svg">
<path d="M8 10.6667C7.86814 10.6667 7.73925 10.7058 7.62962 10.779C7.51999 10.8523 7.43454 10.9564 7.38408 11.0782C7.33362 11.2 7.32042 11.3341 7.34614 11.4634C7.37187 11.5927 7.43536 11.7115 7.52859 11.8048C7.62183 11.898 7.74062 11.9615 7.86994 11.9872C7.99926 12.0129 8.1333 11.9997 8.25512 11.9493C8.37694 11.8988 8.48106 11.8134 8.55431 11.7037C8.62757 11.5941 8.66667 11.4652 8.66667 11.3334C8.66667 11.1565 8.59643 10.987 8.4714 10.8619C8.34638 10.7369 8.17681 10.6667 8 10.6667ZM15.1133 11.6467L9.74667 2.31335C9.5732 2.00236 9.31986 1.74332 9.01279 1.563C8.70573 1.38267 8.35609 1.2876 8 1.2876C7.6439 1.2876 7.29426 1.38267 6.9872 1.563C6.68014 1.74332 6.42679 2.00236 6.25333 2.31335L0.919999 11.6467C0.740529 11.9494 0.644094 12.294 0.640428 12.6459C0.636763 12.9978 0.725997 13.3444 0.899123 13.6507C1.07225 13.9571 1.32314 14.2123 1.62645 14.3907C1.92977 14.5691 2.27479 14.6643 2.62667 14.6667H13.3733C13.728 14.6702 14.0773 14.5793 14.3853 14.4033C14.6933 14.2273 14.9489 13.9726 15.126 13.6652C15.3031 13.3579 15.3952 13.009 15.393 12.6542C15.3908 12.2995 15.2943 11.9518 15.1133 11.6467ZM13.96 12.98C13.9016 13.084 13.8163 13.1704 13.7131 13.2302C13.6099 13.29 13.4926 13.321 13.3733 13.32H2.62667C2.50741 13.321 2.39006 13.29 2.28688 13.2302C2.18369 13.1704 2.09843 13.084 2.04 12.98C1.98149 12.8787 1.95068 12.7637 1.95068 12.6467C1.95068 12.5297 1.98149 12.4147 2.04 12.3134L7.37333 2.98002C7.42928 2.87082 7.51427 2.77917 7.61896 2.71518C7.72365 2.65119 7.84397 2.61733 7.96667 2.61733C8.08936 2.61733 8.20968 2.65119 8.31437 2.71518C8.41906 2.77917 8.50405 2.87082 8.56 2.98002L13.9267 12.3134C13.9928 12.4132 14.0308 12.5291 14.0367 12.6488C14.0425 12.7684 14.0161 12.8875 13.96 12.9934V12.98ZM8 5.33335C7.82319 5.33335 7.65362 5.40359 7.52859 5.52861C7.40357 5.65364 7.33333 5.82321 7.33333 6.00002V8.66669C7.33333 8.8435 7.40357 9.01307 7.52859 9.13809C7.65362 9.26311 7.82319 9.33335 8 9.33335C8.17681 9.33335 8.34638 9.26311 8.4714 9.13809C8.59643 9.01307 8.66667 8.8435 8.66667 8.66669V6.00002C8.66667 5.82321 8.59643 5.65364 8.4714 5.52861C8.34638 5.40359 8.17681 5.33335 8 5.33335Z" fill="#959595"/>
</svg>
