<svg width="20" height="20" viewBox="0 0 20 20" fill="none" xmlns="http://www.w3.org/2000/svg">
<path d="M10.5916 9.40817C10.5124 9.3323 10.4189 9.27283 10.3166 9.23317C10.1138 9.14982 9.8862 9.14982 9.68331 9.23317C9.58102 9.27283 9.48757 9.3323 9.40831 9.40817L7.74165 11.0748C7.58473 11.2318 7.49657 11.4446 7.49657 11.6665C7.49657 11.8884 7.58473 12.1013 7.74165 12.2582C7.89857 12.4151 8.11139 12.5032 8.33331 12.5032C8.55523 12.5032 8.76806 12.4151 8.92498 12.2582L9.16665 12.0082V14.1665C9.16665 14.3875 9.25444 14.5995 9.41072 14.7558C9.567 14.912 9.77897 14.9998 9.99998 14.9998C10.221 14.9998 10.433 14.912 10.5892 14.7558C10.7455 14.5995 10.8333 14.3875 10.8333 14.1665V12.0082L11.075 12.2582C11.1524 12.3363 11.2446 12.3983 11.3462 12.4406C11.4477 12.4829 11.5566 12.5047 11.6666 12.5047C11.7767 12.5047 11.8856 12.4829 11.9871 12.4406C12.0887 12.3983 12.1808 12.3363 12.2583 12.2582C12.3364 12.1807 12.3984 12.0885 12.4407 11.987C12.483 11.8854 12.5048 11.7765 12.5048 11.6665C12.5048 11.5565 12.483 11.4476 12.4407 11.346C12.3984 11.2445 12.3364 11.1523 12.2583 11.0748L10.5916 9.40817ZM16.6666 7.44984C16.658 7.37328 16.6412 7.29786 16.6166 7.22484V7.14984C16.5766 7.06415 16.5231 6.98539 16.4583 6.9165L11.4583 1.9165C11.3894 1.85168 11.3107 1.79824 11.225 1.75817H11.1416C11.0606 1.71484 10.9735 1.68394 10.8833 1.6665H5.83331C5.17027 1.6665 4.53439 1.9299 4.06555 2.39874C3.59671 2.86758 3.33331 3.50346 3.33331 4.1665V15.8332C3.33331 16.4962 3.59671 17.1321 4.06555 17.6009C4.53439 18.0698 5.17027 18.3332 5.83331 18.3332H14.1666C14.8297 18.3332 15.4656 18.0698 15.9344 17.6009C16.4033 17.1321 16.6666 16.4962 16.6666 15.8332V7.49984C16.6666 7.49984 16.6666 7.49984 16.6666 7.44984ZM11.6666 4.50817L13.825 6.6665H12.5C12.279 6.6665 12.067 6.57871 11.9107 6.42243C11.7544 6.26615 11.6666 6.05418 11.6666 5.83317V4.50817ZM15 15.8332C15 16.0542 14.9122 16.2661 14.7559 16.4224C14.5996 16.5787 14.3877 16.6665 14.1666 16.6665H5.83331C5.6123 16.6665 5.40034 16.5787 5.24406 16.4224C5.08778 16.2661 4.99998 16.0542 4.99998 15.8332V4.1665C4.99998 3.94549 5.08778 3.73353 5.24406 3.57725C5.40034 3.42097 5.6123 3.33317 5.83331 3.33317H9.99998V5.83317C9.99998 6.49621 10.2634 7.1321 10.7322 7.60094C11.2011 8.06978 11.8369 8.33317 12.5 8.33317H15V15.8332Z" fill="#959595"/>
</svg>
