<svg width="20" height="20" viewBox="0 0 20 20" fill="none" xmlns="http://www.w3.org/2000/svg">
<path d="M9.58331 16.6665H4.58331C4.3623 16.6665 4.15034 16.5787 3.99406 16.4224C3.83778 16.2661 3.74998 16.0542 3.74998 15.8332V4.1665C3.74998 3.94549 3.83778 3.73353 3.99406 3.57725C4.15034 3.42097 4.3623 3.33317 4.58331 3.33317H8.74998V5.83317C8.74998 6.49621 9.01337 7.1321 9.48221 7.60094C9.95105 8.06978 10.5869 8.33317 11.25 8.33317H13.75V12.4998C13.75 12.7209 13.8378 12.9328 13.9941 13.0891C14.1503 13.2454 14.3623 13.3332 14.5833 13.3332C14.8043 13.3332 15.0163 13.2454 15.1726 13.0891C15.3288 12.9328 15.4166 12.7209 15.4166 12.4998V7.49984C15.4166 7.49984 15.4166 7.49984 15.4166 7.44984C15.408 7.37328 15.3912 7.29786 15.3666 7.22484V7.14984C15.3266 7.06415 15.2731 6.98539 15.2083 6.9165L10.2083 1.9165C10.1394 1.85168 10.0607 1.79824 9.97498 1.75817C9.94741 1.75335 9.91921 1.75335 9.89165 1.75817C9.81062 1.71484 9.72353 1.68394 9.63331 1.6665H4.58331C3.92027 1.6665 3.28439 1.9299 2.81555 2.39874C2.34671 2.86758 2.08331 3.50346 2.08331 4.1665V15.8332C2.08331 16.4962 2.34671 17.1321 2.81555 17.6009C3.28439 18.0698 3.92027 18.3332 4.58331 18.3332H9.58331C9.80433 18.3332 10.0163 18.2454 10.1726 18.0891C10.3288 17.9328 10.4166 17.7209 10.4166 17.4998C10.4166 17.2788 10.3288 17.0669 10.1726 16.9106C10.0163 16.7543 9.80433 16.6665 9.58331 16.6665ZM10.4166 4.50817L12.575 6.6665H11.25C11.029 6.6665 10.817 6.57871 10.6607 6.42243C10.5044 6.26615 10.4166 6.05418 10.4166 5.83317V4.50817ZM6.24998 11.6665H11.25C11.471 11.6665 11.683 11.5787 11.8392 11.4224C11.9955 11.2661 12.0833 11.0542 12.0833 10.8332C12.0833 10.6122 11.9955 10.4002 11.8392 10.2439C11.683 10.0876 11.471 9.99984 11.25 9.99984H6.24998C6.02897 9.99984 5.817 10.0876 5.66072 10.2439C5.50444 10.4002 5.41665 10.6122 5.41665 10.8332C5.41665 11.0542 5.50444 11.2661 5.66072 11.4224C5.817 11.5787 6.02897 11.6665 6.24998 11.6665ZM9.58331 13.3332H6.24998C6.02897 13.3332 5.817 13.421 5.66072 13.5772C5.50444 13.7335 5.41665 13.9455 5.41665 14.1665C5.41665 14.3875 5.50444 14.5995 5.66072 14.7558C5.817 14.912 6.02897 14.9998 6.24998 14.9998H9.58331C9.80433 14.9998 10.0163 14.912 10.1726 14.7558C10.3288 14.5995 10.4166 14.3875 10.4166 14.1665C10.4166 13.9455 10.3288 13.7335 10.1726 13.5772C10.0163 13.421 9.80433 13.3332 9.58331 13.3332ZM6.24998 8.33317H7.08331C7.30433 8.33317 7.51629 8.24537 7.67257 8.08909C7.82885 7.93281 7.91665 7.72085 7.91665 7.49984C7.91665 7.27882 7.82885 7.06686 7.67257 6.91058C7.51629 6.7543 7.30433 6.6665 7.08331 6.6665H6.24998C6.02897 6.6665 5.817 6.7543 5.66072 6.91058C5.50444 7.06686 5.41665 7.27882 5.41665 7.49984C5.41665 7.72085 5.50444 7.93281 5.66072 8.08909C5.817 8.24537 6.02897 8.33317 6.24998 8.33317ZM17.675 13.5748C17.5975 13.4967 17.5053 13.4347 17.4038 13.3924C17.3022 13.3501 17.1933 13.3283 17.0833 13.3283C16.9733 13.3283 16.8644 13.3501 16.7628 13.3924C16.6613 13.4347 16.5691 13.4967 16.4916 13.5748L13.75 16.3248L12.675 15.2415C12.5973 15.1638 12.505 15.1022 12.4035 15.0601C12.302 15.0181 12.1932 14.9964 12.0833 14.9964C11.9734 14.9964 11.8646 15.0181 11.7631 15.0601C11.6616 15.1022 11.5693 15.1638 11.4916 15.2415C11.4139 15.3192 11.3523 15.4114 11.3103 15.513C11.2682 15.6145 11.2466 15.7233 11.2466 15.8332C11.2466 15.9431 11.2682 16.0519 11.3103 16.1534C11.3523 16.2549 11.4139 16.3471 11.4916 16.4248L13.1583 18.0915C13.2358 18.1696 13.328 18.2316 13.4295 18.2739C13.531 18.3162 13.64 18.338 13.75 18.338C13.86 18.338 13.9689 18.3162 14.0705 18.2739C14.172 18.2316 14.2642 18.1696 14.3416 18.0915L17.675 14.7582C17.7531 14.6807 17.8151 14.5885 17.8574 14.487C17.8997 14.3854 17.9215 14.2765 17.9215 14.1665C17.9215 14.0565 17.8997 13.9476 17.8574 13.846C17.8151 13.7445 17.7531 13.6523 17.675 13.5748Z" fill="#959595"/>
</svg>
