<svg width="18" height="18" viewBox="0 0 18 18" fill="none" xmlns="http://www.w3.org/2000/svg">
<path d="M1.87499 6.64497L8.62499 10.545C8.73901 10.6108 8.86834 10.6455 8.99999 10.6455C9.13164 10.6455 9.26098 10.6108 9.37499 10.545L16.125 6.64497C16.2383 6.57953 16.3326 6.48556 16.3984 6.37241C16.4642 6.25926 16.4992 6.13086 16.5 5.99997C16.5005 5.86782 16.4661 5.73787 16.4003 5.62328C16.3344 5.5087 16.2394 5.41355 16.125 5.34747L9.37499 1.45497C9.26098 1.38915 9.13164 1.35449 8.99999 1.35449C8.86834 1.35449 8.73901 1.38915 8.62499 1.45497L1.87499 5.34747C1.76054 5.41355 1.66558 5.5087 1.59973 5.62328C1.53387 5.73787 1.49947 5.86782 1.49999 5.99997C1.50078 6.13086 1.53581 6.25926 1.6016 6.37241C1.66739 6.48556 1.76164 6.57953 1.87499 6.64497ZM8.99999 2.99997L14.25 5.99997L8.99999 8.99997L3.74999 5.99997L8.99999 2.99997ZM15.375 8.37747L8.99999 12L2.62499 8.34747C2.53939 8.29788 2.44483 8.26572 2.34674 8.25283C2.24866 8.23994 2.14899 8.24659 2.05349 8.27238C1.95798 8.29817 1.86853 8.34261 1.79027 8.40312C1.71201 8.46363 1.64649 8.53903 1.59749 8.62497C1.49971 8.79718 1.47401 9.00108 1.526 9.19217C1.57799 9.38326 1.70344 9.54603 1.87499 9.64497L8.62499 13.545C8.73901 13.6108 8.86834 13.6455 8.99999 13.6455C9.13164 13.6455 9.26098 13.6108 9.37499 13.545L16.125 9.64497C16.2965 9.54603 16.422 9.38326 16.474 9.19217C16.526 9.00108 16.5003 8.79718 16.4025 8.62497C16.3535 8.53903 16.288 8.46363 16.2097 8.40312C16.1315 8.34261 16.042 8.29817 15.9465 8.27238C15.851 8.24659 15.7513 8.23994 15.6532 8.25283C15.5552 8.26572 15.4606 8.29788 15.375 8.34747V8.37747ZM15.375 11.3775L8.99999 15L2.62499 11.3475C2.53939 11.2979 2.44483 11.2657 2.34674 11.2528C2.24866 11.2399 2.14899 11.2466 2.05349 11.2724C1.95798 11.2982 1.86853 11.3426 1.79027 11.4031C1.71201 11.4636 1.64649 11.539 1.59749 11.625C1.49971 11.7972 1.47401 12.0011 1.526 12.1922C1.57799 12.3833 1.70344 12.546 1.87499 12.645L8.62499 16.545C8.73901 16.6108 8.86834 16.6455 8.99999 16.6455C9.13164 16.6455 9.26098 16.6108 9.37499 16.545L16.125 12.645C16.2965 12.546 16.422 12.3833 16.474 12.1922C16.526 12.0011 16.5003 11.7972 16.4025 11.625C16.3535 11.539 16.288 11.4636 16.2097 11.4031C16.1315 11.3426 16.042 11.2982 15.9465 11.2724C15.851 11.2466 15.7513 11.2399 15.6532 11.2528C15.5552 11.2657 15.4606 11.2979 15.375 11.3475V11.3775Z" fill="#959595"/>
</svg>
