<svg width="16" height="16" viewBox="0 0 16 16" fill="none" xmlns="http://www.w3.org/2000/svg">
<path d="M2.33335 4C2.2015 4 2.07261 4.0391 1.96297 4.11235C1.85334 4.18561 1.76789 4.28973 1.71743 4.41154C1.66698 4.53336 1.65377 4.66741 1.6795 4.79673C1.70522 4.92605 1.76871 5.04484 1.86195 5.13807C1.95518 5.23131 2.07397 5.2948 2.20329 5.32052C2.33261 5.34625 2.46666 5.33304 2.58848 5.28259C2.71029 5.23213 2.81441 5.14668 2.88767 5.03705C2.96092 4.92741 3.00002 4.79852 3.00002 4.66667C3.00002 4.48986 2.92978 4.32029 2.80476 4.19526C2.67973 4.07024 2.51017 4 2.33335 4ZM5.00002 5.33333H14.3334C14.5102 5.33333 14.6797 5.2631 14.8048 5.13807C14.9298 5.01305 15 4.84348 15 4.66667C15 4.48986 14.9298 4.32029 14.8048 4.19526C14.6797 4.07024 14.5102 4 14.3334 4H5.00002C4.82321 4 4.65364 4.07024 4.52862 4.19526C4.40359 4.32029 4.33335 4.48986 4.33335 4.66667C4.33335 4.84348 4.40359 5.01305 4.52862 5.13807C4.65364 5.2631 4.82321 5.33333 5.00002 5.33333ZM5.00002 7.33333C4.86817 7.33333 4.73927 7.37243 4.62964 7.44569C4.52001 7.51894 4.43456 7.62306 4.3841 7.74488C4.33364 7.86669 4.32044 8.00074 4.34616 8.13006C4.37189 8.25938 4.43538 8.37817 4.52862 8.4714C4.62185 8.56464 4.74064 8.62813 4.86996 8.65386C4.99928 8.67958 5.13333 8.66638 5.25514 8.61592C5.37696 8.56546 5.48108 8.48001 5.55433 8.37038C5.62759 8.26075 5.66669 8.13185 5.66669 8C5.66669 7.82319 5.59645 7.65362 5.47143 7.5286C5.3464 7.40357 5.17683 7.33333 5.00002 7.33333ZM7.66669 10.6667C7.53483 10.6667 7.40594 10.7058 7.29631 10.779C7.18667 10.8523 7.10123 10.9564 7.05077 11.0782C7.00031 11.2 6.98711 11.3341 7.01283 11.4634C7.03855 11.5927 7.10205 11.7115 7.19528 11.8047C7.28852 11.898 7.40731 11.9615 7.53663 11.9872C7.66595 12.0129 7.79999 11.9997 7.92181 11.9493C8.04363 11.8988 8.14775 11.8133 8.221 11.7037C8.29426 11.5941 8.33335 11.4652 8.33335 11.3333C8.33335 11.1565 8.26312 10.987 8.13809 10.8619C8.01307 10.7369 7.8435 10.6667 7.66669 10.6667ZM14.3334 7.33333H7.66669C7.48988 7.33333 7.32031 7.40357 7.19528 7.5286C7.07026 7.65362 7.00002 7.82319 7.00002 8C7.00002 8.17681 7.07026 8.34638 7.19528 8.4714C7.32031 8.59643 7.48988 8.66667 7.66669 8.66667H14.3334C14.5102 8.66667 14.6797 8.59643 14.8048 8.4714C14.9298 8.34638 15 8.17681 15 8C15 7.82319 14.9298 7.65362 14.8048 7.5286C14.6797 7.40357 14.5102 7.33333 14.3334 7.33333ZM14.3334 10.6667H10.3334C10.1565 10.6667 9.98697 10.7369 9.86195 10.8619C9.73693 10.987 9.66669 11.1565 9.66669 11.3333C9.66669 11.5101 9.73693 11.6797 9.86195 11.8047C9.98697 11.9298 10.1565 12 10.3334 12H14.3334C14.5102 12 14.6797 11.9298 14.8048 11.8047C14.9298 11.6797 15 11.5101 15 11.3333C15 11.1565 14.9298 10.987 14.8048 10.8619C14.6797 10.7369 14.5102 10.6667 14.3334 10.6667Z" fill="#959595"/>
</svg>
