<svg width="20" height="20" viewBox="0 0 20 20" fill="none" xmlns="http://www.w3.org/2000/svg">
<path d="M6.66669 5.00016H9.16669C9.3877 5.00016 9.59966 4.91236 9.75594 4.75608C9.91222 4.5998 10 4.38784 10 4.16683C10 3.94582 9.91222 3.73385 9.75594 3.57757C9.59966 3.42129 9.3877 3.3335 9.16669 3.3335H6.66669C6.44567 3.3335 6.23371 3.42129 6.07743 3.57757C5.92115 3.73385 5.83335 3.94582 5.83335 4.16683C5.83335 4.38784 5.92115 4.5998 6.07743 4.75608C6.23371 4.91236 6.44567 5.00016 6.66669 5.00016ZM13.3334 5.00016C13.4982 5.00016 13.6593 4.95129 13.7963 4.85972C13.9334 4.76815 14.0402 4.638 14.1033 4.48573C14.1663 4.33346 14.1828 4.1659 14.1507 4.00425C14.1185 3.8426 14.0392 3.69412 13.9226 3.57757C13.8061 3.46103 13.6576 3.38166 13.4959 3.34951C13.3343 3.31735 13.1667 3.33386 13.0145 3.39693C12.8622 3.46 12.732 3.56681 12.6405 3.70385C12.5489 3.8409 12.5 4.00201 12.5 4.16683C12.5 4.38784 12.5878 4.5998 12.7441 4.75608C12.9004 4.91236 13.1123 5.00016 13.3334 5.00016ZM13.3334 8.3335C13.1685 8.3335 13.0074 8.38237 12.8704 8.47394C12.7333 8.56551 12.6265 8.69565 12.5635 8.84793C12.5004 9.0002 12.4839 9.16775 12.516 9.3294C12.5482 9.49106 12.6276 9.63954 12.7441 9.75608C12.8606 9.87263 13.0091 9.952 13.1708 9.98415C13.3324 10.0163 13.5 9.9998 13.6523 9.93673C13.8045 9.87366 13.9347 9.76685 14.0262 9.6298C14.1178 9.49276 14.1667 9.33165 14.1667 9.16683C14.1667 8.94582 14.0789 8.73385 13.9226 8.57757C13.7663 8.42129 13.5544 8.3335 13.3334 8.3335ZM17.5 15.8335H12.35C12.2256 15.484 12.0249 15.1666 11.7626 14.9042C11.5003 14.6419 11.1829 14.4413 10.8334 14.3168V12.5002H14.1667C14.8297 12.5002 15.4656 12.2368 15.9345 11.7679C16.4033 11.2991 16.6667 10.6632 16.6667 10.0002V8.3335C16.663 7.71678 16.4315 7.12319 16.0167 6.66683C16.4315 6.21046 16.663 5.61687 16.6667 5.00016V3.3335C16.6667 2.67045 16.4033 2.03457 15.9345 1.56573C15.4656 1.09689 14.8297 0.833496 14.1667 0.833496H5.83335C5.17031 0.833496 4.53443 1.09689 4.06559 1.56573C3.59675 2.03457 3.33335 2.67045 3.33335 3.3335V5.00016C3.33703 5.61687 3.56853 6.21046 3.98335 6.66683C3.56853 7.12319 3.33703 7.71678 3.33335 8.3335V10.0002C3.33335 10.6632 3.59675 11.2991 4.06559 11.7679C4.53443 12.2368 5.17031 12.5002 5.83335 12.5002H9.16669V14.3168C8.81719 14.4413 8.49977 14.6419 8.23744 14.9042C7.97511 15.1666 7.77445 15.484 7.65002 15.8335H2.50002C2.27901 15.8335 2.06704 15.9213 1.91076 16.0776C1.75448 16.2339 1.66669 16.4458 1.66669 16.6668C1.66669 16.8878 1.75448 17.0998 1.91076 17.2561C2.06704 17.4124 2.27901 17.5002 2.50002 17.5002H7.65002C7.82519 17.9828 8.14471 18.3998 8.56516 18.6945C8.98561 18.9891 9.48659 19.1472 10 19.1472C10.5135 19.1472 11.0144 18.9891 11.4349 18.6945C11.8553 18.3998 12.1749 17.9828 12.35 17.5002H17.5C17.721 17.5002 17.933 17.4124 18.0893 17.2561C18.2456 17.0998 18.3334 16.8878 18.3334 16.6668C18.3334 16.4458 18.2456 16.2339 18.0893 16.0776C17.933 15.9213 17.721 15.8335 17.5 15.8335ZM5.00002 3.3335C5.00002 3.11248 5.08782 2.90052 5.2441 2.74424C5.40038 2.58796 5.61234 2.50016 5.83335 2.50016H14.1667C14.3877 2.50016 14.5997 2.58796 14.7559 2.74424C14.9122 2.90052 15 3.11248 15 3.3335V5.00016C15 5.22118 14.9122 5.43314 14.7559 5.58942C14.5997 5.7457 14.3877 5.8335 14.1667 5.8335H5.83335C5.61234 5.8335 5.40038 5.7457 5.2441 5.58942C5.08782 5.43314 5.00002 5.22118 5.00002 5.00016V3.3335ZM5.83335 10.8335C5.61234 10.8335 5.40038 10.7457 5.2441 10.5894C5.08782 10.4331 5.00002 10.2212 5.00002 10.0002V8.3335C5.00002 8.11248 5.08782 7.90052 5.2441 7.74424C5.40038 7.58796 5.61234 7.50016 5.83335 7.50016H14.1667C14.3877 7.50016 14.5997 7.58796 14.7559 7.74424C14.9122 7.90052 15 8.11248 15 8.3335V10.0002C15 10.2212 14.9122 10.4331 14.7559 10.5894C14.5997 10.7457 14.3877 10.8335 14.1667 10.8335H5.83335ZM10 17.5002C9.8352 17.5002 9.67409 17.4513 9.53705 17.3597C9.4 17.2682 9.29319 17.138 9.23012 16.9857C9.16705 16.8335 9.15055 16.6659 9.1827 16.5043C9.21485 16.3426 9.29422 16.1941 9.41077 16.0776C9.52731 15.961 9.67579 15.8817 9.83745 15.8495C9.9991 15.8174 10.1667 15.8339 10.3189 15.8969C10.4712 15.96 10.6013 16.0668 10.6929 16.2039C10.7845 16.3409 10.8334 16.502 10.8334 16.6668C10.8334 16.8878 10.7456 17.0998 10.5893 17.2561C10.433 17.4124 10.221 17.5002 10 17.5002ZM9.16669 8.3335H6.66669C6.44567 8.3335 6.23371 8.42129 6.07743 8.57757C5.92115 8.73385 5.83335 8.94582 5.83335 9.16683C5.83335 9.38784 5.92115 9.5998 6.07743 9.75608C6.23371 9.91236 6.44567 10.0002 6.66669 10.0002H9.16669C9.3877 10.0002 9.59966 9.91236 9.75594 9.75608C9.91222 9.5998 10 9.38784 10 9.16683C10 8.94582 9.91222 8.73385 9.75594 8.57757C9.59966 8.42129 9.3877 8.3335 9.16669 8.3335Z" fill="#959595"/>
</svg>
