<svg width="16" height="16" viewBox="0 0 16 16" fill="none" xmlns="http://www.w3.org/2000/svg">
<path d="M14.6667 6.44676C14.6246 6.32482 14.548 6.21772 14.4462 6.13843C14.3445 6.05915 14.2219 6.01109 14.0933 6.0001L10.3 5.44676L8.60001 2.0001C8.54541 1.88738 8.46018 1.79232 8.35406 1.72581C8.24795 1.6593 8.12524 1.62402 8.00001 1.62402C7.87477 1.62402 7.75206 1.6593 7.64595 1.72581C7.53983 1.79232 7.4546 1.88738 7.40001 2.0001L5.70001 5.4401L1.90667 6.0001C1.78329 6.01763 1.66729 6.06941 1.57184 6.14954C1.47639 6.22967 1.40531 6.33495 1.36667 6.45343C1.3313 6.56921 1.32813 6.69244 1.35749 6.80989C1.38685 6.92734 1.44764 7.03458 1.53334 7.1201L4.28667 9.78676L3.62001 13.5734C3.59621 13.6984 3.60867 13.8276 3.65592 13.9457C3.70317 14.0639 3.78324 14.166 3.88667 14.2401C3.98748 14.3122 4.10639 14.3547 4.23004 14.363C4.35369 14.3712 4.47719 14.3448 4.58667 14.2868L8.00001 12.5068L11.4 14.2934C11.4936 14.3462 11.5992 14.3738 11.7067 14.3734C11.8479 14.3739 11.9856 14.3296 12.1 14.2468C12.2034 14.1727 12.2835 14.0705 12.3308 13.9524C12.378 13.8343 12.3905 13.7051 12.3667 13.5801L11.7 9.79343L14.4533 7.12676C14.5496 7.04522 14.6207 6.93803 14.6585 6.81766C14.6963 6.69729 14.6991 6.56868 14.6667 6.44676ZM10.5667 9.11343C10.4885 9.18905 10.43 9.28266 10.3963 9.38608C10.3626 9.4895 10.3547 9.5996 10.3733 9.70676L10.8533 12.5001L8.34667 11.1668C8.25022 11.1154 8.14262 11.0885 8.03334 11.0885C7.92406 11.0885 7.81646 11.1154 7.72001 11.1668L5.21334 12.5001L5.69334 9.70676C5.71196 9.5996 5.70408 9.4895 5.67038 9.38608C5.63668 9.28266 5.57819 9.18905 5.50001 9.11343L3.50001 7.11343L6.30667 6.70676C6.41467 6.69174 6.51734 6.65046 6.60567 6.58653C6.69401 6.52261 6.76531 6.43799 6.81334 6.3401L8.00001 3.8001L9.25334 6.34676C9.30137 6.44466 9.37267 6.52927 9.46101 6.5932C9.54934 6.65712 9.65201 6.69841 9.76001 6.71343L12.5667 7.1201L10.5667 9.11343Z" fill="#959595"/>
</svg>
