<svg width="20" height="20" viewBox="0 0 20 20" fill="none" xmlns="http://www.w3.org/2000/svg">
<path d="M10.8334 13.3333H2.50002C2.27901 13.3333 2.06704 13.4211 1.91076 13.5774C1.75448 13.7337 1.66669 13.9457 1.66669 14.1667C1.66669 14.3877 1.75448 14.5996 1.91076 14.7559C2.06704 14.9122 2.27901 15 2.50002 15H10.8334C11.0544 15 11.2663 14.9122 11.4226 14.7559C11.5789 14.5996 11.6667 14.3877 11.6667 14.1667C11.6667 13.9457 11.5789 13.7337 11.4226 13.5774C11.2663 13.4211 11.0544 13.3333 10.8334 13.3333ZM2.50002 6.66667H17.5C17.721 6.66667 17.933 6.57887 18.0893 6.42259C18.2456 6.26631 18.3334 6.05435 18.3334 5.83333C18.3334 5.61232 18.2456 5.40036 18.0893 5.24408C17.933 5.0878 17.721 5 17.5 5H2.50002C2.27901 5 2.06704 5.0878 1.91076 5.24408C1.75448 5.40036 1.66669 5.61232 1.66669 5.83333C1.66669 6.05435 1.75448 6.26631 1.91076 6.42259C2.06704 6.57887 2.27901 6.66667 2.50002 6.66667ZM17.5 9.16667H2.50002C2.27901 9.16667 2.06704 9.25446 1.91076 9.41074C1.75448 9.56702 1.66669 9.77899 1.66669 10C1.66669 10.221 1.75448 10.433 1.91076 10.5893C2.06704 10.7455 2.27901 10.8333 2.50002 10.8333H17.5C17.721 10.8333 17.933 10.7455 18.0893 10.5893C18.2456 10.433 18.3334 10.221 18.3334 10C18.3334 9.77899 18.2456 9.56702 18.0893 9.41074C17.933 9.25446 17.721 9.16667 17.5 9.16667Z" fill="#959595"/>
</svg>
