<svg width="20" height="20" viewBox="0 0 20 20" fill="none" xmlns="http://www.w3.org/2000/svg">
<path d="M17.5 1.6665H2.49999C2.27898 1.6665 2.06701 1.7543 1.91073 1.91058C1.75445 2.06686 1.66666 2.27882 1.66666 2.49984V17.4998C1.66666 17.7209 1.75445 17.9328 1.91073 18.0891C2.06701 18.2454 2.27898 18.3332 2.49999 18.3332H17.5C17.721 18.3332 17.933 18.2454 18.0892 18.0891C18.2455 17.9328 18.3333 17.7209 18.3333 17.4998V2.49984C18.3333 2.27882 18.2455 2.06686 18.0892 1.91058C17.933 1.7543 17.721 1.6665 17.5 1.6665ZM9.16666 16.6665H3.33332V8.33317H9.16666V16.6665ZM16.6667 16.6665H10.8333V8.33317H16.6667V16.6665ZM16.6667 6.6665H3.33332V3.33317H16.6667V6.6665Z" fill="#959595"/>
</svg>
